<?xml version="1.0" encoding="UTF-8" standalone="no"?>
<svg width="100px" height="100px" viewBox="0 0 100 100" version="1.1" xmlns="http://www.w3.org/2000/svg" xmlns:xlink="http://www.w3.org/1999/xlink" xmlns:sketch="http://www.bohemiancoding.com/sketch/ns">
    <!-- Generator: Sketch 3.1.1 (8761) - http://www.bohemiancoding.com/sketch -->
    <title>Shape</title>
    <desc>Created with Sketch.</desc>
    <defs></defs>
    <g id="Page-1" stroke="none" stroke-width="1" fill="none" fill-rule="evenodd" sketch:type="MSPage">
        <g id="noun_1751_cc" sketch:type="MSLayerGroup" transform="translate(-12.000000, -5.000000)" fill="white">
            <g transform="translate(12.000000, 5.000000)" id="Shape" sketch:type="MSShapeGroup">
                <path d="M96.096,92.341 L90.958,92.341 L53.961,20.697 L61.773,5.569 C62.746,3.684 61.986,1.378 60.078,0.418 C58.168,-0.542 55.83,0.208 54.855,2.092 L49.604,12.261 L44.354,2.092 C43.38,0.208 41.042,-0.539 39.133,0.418 C37.222,1.378 36.463,3.685 37.436,5.57 L45.248,20.698 L8.251,92.341 L3.881,92.341 C1.737,92.341 0,94.055 0,96.17 C0,98.285 1.737,100 3.881,100 L96.096,100 C98.241,100 99.978,98.285 99.978,96.171 C99.978,94.055 98.241,92.341 96.096,92.341 L96.096,92.341 Z M35.433,92.341 L43.336,77.034 L49.977,65.1 L56.639,77.156 L64.479,92.342 L35.433,92.342 L35.433,92.341 Z M73.129,92.341 C73.068,92.165 73.009,91.989 72.924,91.818 L63.531,73.632 C63.513,73.6 63.498,73.568 63.48,73.537 L53.395,55.287 C52.716,54.06 51.414,53.293 49.994,53.291 L49.989,53.291 C48.572,53.291 47.268,54.053 46.587,55.277 L36.502,73.401 C36.483,73.435 36.464,73.469 36.446,73.505 L27.054,91.692 C26.945,91.903 26.865,92.121 26.798,92.34 L16.963,92.34 L49.604,29.133 L82.244,92.341 L73.129,92.341 L73.129,92.341 Z"></path>
            </g>
        </g>
    </g>
</svg>